# xmcd
#
# Track frame offsets:
#	150
#	13947
#	29136
#	41472
#	60541
#	78489
#	92080
#	105859
#	120566
#	138023
#	151891
#	165739
#
# Disc length: 2415 seconds
#
# Revision: 0
# Processed by: cddbd v1.5.2PL0 Copyright (c) Steve Scherf et al.
# Submitted via: EasyCDDAExtractor 2010.4.0.0
#
DISCID=8d096d0c
DTITLE=Waylon Thibodeaux - Back in My Old Stompin' Grounds
DYEAR=2014
DGENRE=Cajun
TTITLE0=Chanky chank music
TTITLE1=Two steps
TTITLE2=Calling Baton Rouge
TTITLE3=Chicken-leg girl
TTITLE4=Swing like that
TTITLE5=Heaven on the Times Picayune
TTITLE6=Funky monkey
TTITLE7=Shake your Tabasco
TTITLE8=You waltzed right back into my life
TTITLE9=A bad day's fishing
TTITLE10=Little miss everything
TTITLE11=Back in my old stompin' grounds
EXTD=
EXTT0=
EXTT1=
EXTT2=
EXTT3=
EXTT4=
EXTT5=
EXTT6=
EXTT7=
EXTT8=
EXTT9=
EXTT10=
EXTT11=
PLAYORDER=
